<?xml version="1.0" encoding="UTF-8"?>
<svg xmlns="http://www.w3.org/2000/svg" xmlns:xlink="http://www.w3.org/1999/xlink" viewBox="0 0 43.12 60.84">
  <defs>
    <style>
      .cls-1 {
        fill: url(#linear-gradient-2);
      }

      .cls-2 {
        fill: #ffdebd;
        mix-blend-mode: overlay;
        opacity: .4;
      }

      .cls-3 {
        fill: #d48063;
      }

      .cls-4 {
        fill: #fff;
      }

      .cls-5 {
        fill: #f2c496;
      }

      .cls-6 {
        fill: url(#Nueva_muestra_de_degradado_2-2);
      }

      .cls-7 {
        isolation: isolate;
      }

      .cls-8 {
        fill: #647e87;
      }

      .cls-9 {
        fill: url(#Nueva_muestra_de_degradado_2);
      }

      .cls-10 {
        fill: #859aa0;
      }

      .cls-11 {
        fill: #de9b73;
      }

      .cls-12 {
        fill: url(#linear-gradient);
      }

      .cls-13 {
        fill: #cf846b;
      }
    </style>
    <linearGradient id="linear-gradient" x1="28.48" y1="38.15" x2="37.36" y2="53.92" gradientUnits="userSpaceOnUse">
      <stop offset="0" stop-color="#f2c496"/>
      <stop offset="1" stop-color="#e8a076"/>
    </linearGradient>
    <linearGradient id="linear-gradient-2" x1="0" y1="45.06" x2="21.63" y2="45.06" xlink:href="#linear-gradient"/>
    <linearGradient id="Nueva_muestra_de_degradado_2" data-name="Nueva muestra de degradado 2" x1="16.14" y1="-.63" x2="34.91" y2="25.3" gradientUnits="userSpaceOnUse">
      <stop offset="0" stop-color="#647e87"/>
      <stop offset="1" stop-color="#4b6268"/>
    </linearGradient>
    <linearGradient id="Nueva_muestra_de_degradado_2-2" data-name="Nueva muestra de degradado 2" x1="17.53" y1="6.82" x2="29.87" y2="30.91" xlink:href="#Nueva_muestra_de_degradado_2"/>
  </defs>
  <g class="cls-7">
    <g id="Capa_1" data-name="Capa 1">
      <g>
        <g>
          <polygon class="cls-12" points="21.63 41.77 21.63 60.84 43.12 48.35 43.12 29.28 21.63 41.77"/>
          <polygon class="cls-1" points="0 29.28 0 48.35 21.63 60.84 21.63 41.77 0 29.28"/>
          <polygon class="cls-3" points="13.92 37.32 7.71 33.73 7.71 38.67 13.92 42.25 13.92 37.32"/>
          <polygon class="cls-2" points="21.63 42.25 43.12 29.77 43.12 29.28 21.63 41.77 21.63 42.25"/>
          <polygon class="cls-2" points="21.63 41.77 0 29.28 0 29.77 21.63 42.25 21.63 41.77"/>
          <polygon class="cls-5" points="21.49 16.79 0 29.28 21.63 41.77 43.12 29.28 21.49 16.79"/>
          <polygon class="cls-11" points="13.92 37.32 35.41 24.83 29.2 21.24 7.71 33.73 13.92 37.32"/>
          <polygon class="cls-13" points="10.59 35.4 10.83 35.53 32.31 23.04 32.08 22.91 10.59 35.4"/>
        </g>
        <g>
          <path class="cls-9" d="M22.29.45c-4.63-1.19-8.67.04-10.8,2.84l-1.4,1.84c2.13-2.8,6.17-4.03,10.8-2.84,6.84,1.75,12.36,8.12,12.34,14.2,0,1.97-.59,3.66-1.61,5l1.4-1.84c1.02-1.34,1.6-3.04,1.61-5,.02-6.08-5.51-12.44-12.34-14.2Z"/>
          <path class="cls-10" d="M33.35,16.22c.02-6.08-5.51-12.44-12.34-14.2-4.28-1.1-8.04-.11-10.27,2.26l-.65.86c2.13-2.8,6.17-4.03,10.8-2.84,6.84,1.75,12.36,8.12,12.34,14.2,0,1.37-.3,2.6-.82,3.68.6-1.14.94-2.47.94-3.96Z"/>
          <path class="cls-6" d="M20.89,2.3c-6.84-1.75-12.39,1.76-12.41,7.84-.01,4.56,3.09,9.28,7.54,12.1l3.2,5.79c.44.79,1.02,1.27,1.6,1.42.58.15,1.16-.04,1.6-.6l3.23-4.14c4.45-.54,7.58-3.65,7.59-8.22.02-6.08-5.51-12.44-12.34-14.2Z"/>
          <path class="cls-4" d="M20.87,7.92c-3.35-.86-6.07.86-6.08,3.84,0,2.99,2.7,6.11,6.05,6.96,3.35.86,6.07-.86,6.08-3.85,0-2.98-2.7-6.1-6.05-6.96Z"/>
          <path class="cls-8" d="M20.87,10.41c-1.81-.46-3.27.46-3.28,2.07,0,1.61,1.46,3.29,3.26,3.76,1.8.46,3.27-.46,3.28-2.08,0-1.61-1.46-3.29-3.26-3.75Z"/>
        </g>
      </g>
    </g>
  </g>
</svg>