<?xml version="1.0" encoding="UTF-8"?>
<svg id="Capa_1" data-name="Capa 1" xmlns="http://www.w3.org/2000/svg" viewBox="0 0 15.57 15.5">
  <defs>
    <style>
      .cls-1 {
        fill: #fff;
      }
    </style>
  </defs>
  <path class="cls-1" d="M6.24,11.91H1.23c-.37,0-.66-.3-.66-.66V1.23c0-.37.3-.66.66-.66h3.93v3.07c0,.16.13.28.28.28h3.08c.16,0,.28-.13.28-.28V.57h3.93c.37,0,.66.3.66.66v5.01c0,.16.13.28.28.28s.28-.13.28-.28V1.23c0-.68-.55-1.23-1.23-1.23H1.23C.55,0,0,.55,0,1.23v10.02c0,.68.55,1.23,1.23,1.23h5.01c.16,0,.28-.13.28-.28s-.13-.28-.28-.28ZM8.24,3.36h-2.51V.57h2.51v2.79Z"/>
  <path class="cls-1" d="M5.03,9.23c0-.16-.13-.28-.28-.28H1.74c-.16,0-.28.13-.28.28s.13.28.28.28h3c.16,0,.28-.13.28-.28Z"/>
  <path class="cls-1" d="M1.74,10.37c-.16,0-.28.13-.28.28s.13.28.28.28h1.82c.16,0,.28-.13.28-.28s-.13-.28-.28-.28h-1.82Z"/>
  <path class="cls-1" d="M11.5,7.38c-2.24,0-4.06,1.82-4.06,4.06s1.82,4.06,4.06,4.06,4.06-1.82,4.06-4.06-1.82-4.06-4.06-4.06ZM11.5,14.93c-1.93,0-3.49-1.57-3.49-3.49s1.57-3.49,3.49-3.49,3.5,1.57,3.5,3.49-1.57,3.49-3.5,3.49Z"/>
  <path class="cls-1" d="M12.99,9.75c-.11-.11-.29-.11-.4,0l-1.49,1.49-.65-.65c-.05-.05-.12-.08-.2-.08-.08,0-.15.03-.2.08l-.88.87c-.05.05-.08.13-.08.2s.03.15.08.2l1.72,1.72c.05.06.13.08.2.08s.15-.03.2-.08l2.57-2.56c.05-.05.08-.13.08-.2s-.03-.15-.08-.2l-.88-.87ZM11.1,12.99l-1.32-1.32.47-.47.65.65c.05.05.12.08.2.08s.15-.03.2-.08l1.49-1.49.47.47-2.16,2.16Z"/>
</svg>