<?xml version="1.0" encoding="UTF-8"?>
<svg id="Capa_1" data-name="Capa 1" xmlns="http://www.w3.org/2000/svg" viewBox="0 0 12 12">
  <defs>
    <style>
      .cls-1 {
        fill: #fff;
        fill-rule: evenodd;
      }
    </style>
  </defs>
  <path class="cls-1" d="M12,5.85c0,3.23-2.64,5.85-5.89,5.85-1.03,0-2-.26-2.85-.73l-3.26,1.04,1.06-3.14c-.54-.88-.84-1.91-.84-3.02C.22,2.62,2.86,0,6.11,0s5.89,2.62,5.89,5.85h0ZM6.11.93C3.38.93,1.16,3.14,1.16,5.85c0,1.07.35,2.07.94,2.88l-.62,1.82,1.9-.6c.78.51,1.72.81,2.73.81,2.73,0,4.95-2.2,4.95-4.91S8.84.93,6.11.93h0ZM9.08,7.19c-.04-.06-.13-.1-.28-.17-.14-.07-.85-.42-.99-.47-.13-.05-.23-.07-.32.07-.1.14-.37.47-.46.56-.08.1-.17.11-.31.04-.14-.07-.61-.22-1.16-.71-.43-.38-.72-.85-.8-.99-.08-.14,0-.22.06-.29.07-.06.14-.17.22-.25.07-.08.1-.14.14-.24.05-.1.02-.18-.01-.25-.04-.07-.32-.78-.45-1.06-.12-.29-.24-.28-.32-.28s-.24.02-.24.02c0,0-.29.04-.42.18-.13.14-.51.49-.51,1.19s.52,1.39.59,1.48c.07.1,1,1.59,2.47,2.16,1.47.57,1.47.38,1.73.36.26-.02.85-.35.97-.68.12-.33.12-.62.08-.68h0ZM9.08,7.19"/>
</svg>